<svg xmlns="http://www.w3.org/2000/svg" xmlns:xlink="http://www.w3.org/1999/xlink" width="150" zoomAndPan="magnify" viewBox="0 0 112.5 30.750001" height="41" preserveAspectRatio="xMidYMid meet" version="1.0"><defs><g/><clipPath id="6fe6fbe202"><path d="M 0.378906 0 L 30.878906 0 L 30.878906 30.503906 L 0.378906 30.503906 Z M 0.378906 0 " clip-rule="nonzero"/></clipPath><clipPath id="d6f4d6ad2c"><path d="M 15.628906 0 C 7.207031 0 0.378906 6.828125 0.378906 15.25 C 0.378906 23.675781 7.207031 30.503906 15.628906 30.503906 C 24.050781 30.503906 30.878906 23.675781 30.878906 15.25 C 30.878906 6.828125 24.050781 0 15.628906 0 Z M 15.628906 0 " clip-rule="nonzero"/></clipPath><clipPath id="26199715e0"><path d="M 1.722656 10.421875 L 29.242188 10.421875 L 29.242188 20.070312 L 1.722656 20.070312 Z M 1.722656 10.421875 " clip-rule="nonzero"/></clipPath></defs><g clip-path="url(#6fe6fbe202)"><g clip-path="url(#d6f4d6ad2c)"><path fill="#f15757" d="M 0.378906 0 L 30.878906 0 L 30.878906 30.503906 L 0.378906 30.503906 Z M 0.378906 0 " fill-opacity="1" fill-rule="nonzero"/></g></g><g clip-path="url(#26199715e0)"><path fill="#ffffff" d="M 13.625 19.804688 C 13.640625 19.65625 13.695312 19.128906 13.746094 18.632812 C 13.796875 18.132812 13.867188 17.464844 13.90625 17.144531 C 13.945312 16.828125 13.976562 16.542969 13.976562 16.511719 C 13.976562 16.476562 13.925781 16.472656 13.800781 16.5 C 13.707031 16.519531 13.023438 16.652344 12.28125 16.792969 C 11.542969 16.933594 10.507812 17.125 9.984375 17.214844 C 9.460938 17.300781 8.644531 17.425781 8.175781 17.492188 C 7.703125 17.554688 7.085938 17.617188 6.804688 17.636719 C 6.488281 17.65625 6.1875 17.648438 6.015625 17.613281 C 5.863281 17.585938 5.609375 17.5 5.445312 17.425781 C 5.226562 17.324219 5.019531 17.160156 4.632812 16.785156 C 4.347656 16.507812 3.683594 15.894531 3.160156 15.425781 C 2.636719 14.953125 2.09375 14.472656 1.957031 14.351562 C 1.816406 14.230469 1.714844 14.125 1.726562 14.113281 C 1.734375 14.101562 2.144531 14.007812 2.628906 13.902344 C 3.117188 13.796875 3.566406 13.710938 3.628906 13.710938 C 3.691406 13.710938 3.828125 13.753906 3.933594 13.800781 C 4.035156 13.847656 4.375 14.054688 4.683594 14.265625 C 4.992188 14.472656 5.417969 14.726562 5.632812 14.828125 C 5.84375 14.929688 6.144531 15.035156 6.296875 15.0625 C 6.519531 15.105469 6.667969 15.101562 7.058594 15.039062 C 7.324219 14.996094 7.886719 14.886719 8.308594 14.796875 C 8.734375 14.707031 9.832031 14.449219 10.75 14.222656 C 11.667969 13.992188 13.570312 13.503906 14.972656 13.132812 C 16.378906 12.761719 18.394531 12.226562 19.453125 11.945312 C 20.511719 11.664062 22.074219 11.257812 22.921875 11.042969 C 23.765625 10.828125 24.726562 10.597656 25.054688 10.53125 C 25.542969 10.429688 25.730469 10.410156 26.113281 10.429688 C 26.433594 10.441406 26.660156 10.480469 26.839844 10.550781 C 26.984375 10.605469 27.230469 10.734375 27.382812 10.832031 C 27.539062 10.933594 27.726562 11.046875 27.800781 11.085938 C 27.875 11.125 28.101562 11.1875 28.300781 11.230469 C 28.503906 11.269531 28.796875 11.367188 28.953125 11.441406 C 29.109375 11.515625 29.300781 11.648438 29.382812 11.738281 C 29.460938 11.832031 29.527344 11.945312 29.527344 12 C 29.527344 12.050781 29.492188 12.167969 29.449219 12.253906 C 29.410156 12.339844 29.277344 12.484375 29.152344 12.574219 C 29.03125 12.664062 28.8125 12.789062 28.671875 12.851562 C 28.527344 12.917969 28.101562 13.0625 27.726562 13.179688 C 27.351562 13.296875 26.582031 13.519531 26.019531 13.671875 C 25.460938 13.824219 24.300781 14.125 23.445312 14.335938 C 22.589844 14.546875 21.285156 14.859375 20.542969 15.03125 C 19.804688 15.203125 19.160156 15.351562 19.117188 15.363281 C 19.070312 15.378906 18.75 15.765625 18.398438 16.230469 C 18.050781 16.691406 17.433594 17.480469 17.03125 17.988281 C 16.628906 18.492188 16.132812 19.09375 15.929688 19.320312 C 15.726562 19.546875 15.492188 19.765625 15.40625 19.804688 C 15.320312 19.84375 14.980469 19.917969 14.644531 19.972656 C 14.3125 20.027344 13.941406 20.070312 13.820312 20.070312 C 13.601562 20.070312 13.601562 20.070312 13.625 19.804688 Z M 12.054688 12.066406 C 11.792969 11.65625 11.550781 11.269531 11.519531 11.207031 C 11.464844 11.113281 11.46875 11.085938 11.539062 11.035156 C 11.582031 11.003906 11.945312 10.871094 12.34375 10.738281 C 12.921875 10.550781 13.109375 10.503906 13.261719 10.527344 C 13.371094 10.539062 13.671875 10.636719 13.9375 10.742188 C 14.199219 10.847656 14.839844 11.121094 15.355469 11.351562 C 15.875 11.582031 16.296875 11.785156 16.296875 11.800781 C 16.296875 11.816406 15.957031 11.917969 15.542969 12.027344 C 15.128906 12.136719 14.28125 12.359375 13.660156 12.519531 C 12.535156 12.8125 12.535156 12.8125 12.054688 12.066406 Z M 12.054688 12.066406 " fill-opacity="1" fill-rule="nonzero"/></g><g fill="#000000" fill-opacity="1"><g transform="translate(37.261906, 20.086695)"><g><path d="M 5.25 0 L 2.828125 0 L 0.296875 -11 L 2.46875 -11 L 4.125 -3.265625 L 4.3125 -3.265625 L 6.28125 -11 L 8.140625 -11 L 10.15625 -3.265625 L 10.34375 -3.265625 L 12.015625 -11 L 14.109375 -11 L 11.59375 0 L 9.15625 0 L 7.234375 -7.09375 L 7.078125 -7.09375 Z M 5.25 0 "/></g></g></g><g fill="#000000" fill-opacity="1"><g transform="translate(51.656273, 20.086695)"><g><path d="M 3.234375 0.15625 C 2.703125 0.15625 2.238281 0.0625 1.84375 -0.125 C 1.457031 -0.320312 1.15625 -0.609375 0.9375 -0.984375 C 0.726562 -1.367188 0.625 -1.828125 0.625 -2.359375 C 0.625 -2.847656 0.726562 -3.257812 0.9375 -3.59375 C 1.15625 -3.925781 1.484375 -4.195312 1.921875 -4.40625 C 2.367188 -4.625 2.945312 -4.789062 3.65625 -4.90625 C 4.15625 -4.988281 4.53125 -5.078125 4.78125 -5.171875 C 5.039062 -5.265625 5.21875 -5.367188 5.3125 -5.484375 C 5.40625 -5.609375 5.453125 -5.765625 5.453125 -5.953125 C 5.453125 -6.222656 5.359375 -6.425781 5.171875 -6.5625 C 4.984375 -6.707031 4.675781 -6.78125 4.25 -6.78125 C 3.78125 -6.78125 3.335938 -6.675781 2.921875 -6.46875 C 2.503906 -6.257812 2.144531 -5.988281 1.84375 -5.65625 L 1.6875 -5.65625 L 0.8125 -6.96875 C 1.238281 -7.4375 1.753906 -7.800781 2.359375 -8.0625 C 2.960938 -8.320312 3.625 -8.453125 4.34375 -8.453125 C 5.445312 -8.453125 6.242188 -8.21875 6.734375 -7.75 C 7.222656 -7.289062 7.46875 -6.628906 7.46875 -5.765625 L 7.46875 -2.171875 C 7.46875 -1.796875 7.628906 -1.609375 7.953125 -1.609375 C 8.078125 -1.609375 8.203125 -1.628906 8.328125 -1.671875 L 8.4375 -1.640625 L 8.578125 -0.203125 C 8.460938 -0.117188 8.300781 -0.0507812 8.09375 0 C 7.894531 0.0390625 7.671875 0.0625 7.421875 0.0625 C 6.929688 0.0625 6.546875 -0.03125 6.265625 -0.21875 C 5.984375 -0.414062 5.785156 -0.71875 5.671875 -1.125 L 5.5 -1.140625 C 5.09375 -0.273438 4.335938 0.15625 3.234375 0.15625 Z M 3.890625 -1.40625 C 4.378906 -1.40625 4.765625 -1.566406 5.046875 -1.890625 C 5.335938 -2.210938 5.484375 -2.660156 5.484375 -3.234375 L 5.484375 -4.078125 L 5.34375 -4.109375 C 5.21875 -4.003906 5.050781 -3.914062 4.84375 -3.84375 C 4.644531 -3.78125 4.351562 -3.71875 3.96875 -3.65625 C 3.519531 -3.582031 3.195312 -3.453125 3 -3.265625 C 2.800781 -3.085938 2.703125 -2.828125 2.703125 -2.484375 C 2.703125 -2.128906 2.804688 -1.859375 3.015625 -1.671875 C 3.222656 -1.492188 3.515625 -1.40625 3.890625 -1.40625 Z M 3.890625 -1.40625 "/></g></g></g><g fill="#000000" fill-opacity="1"><g transform="translate(60.402699, 20.086695)"><g><path d="M 1.203125 0 L 1.203125 -8.296875 L 3.203125 -8.296875 L 3.203125 -7.078125 L 3.359375 -7.046875 C 3.867188 -7.984375 4.707031 -8.453125 5.875 -8.453125 C 6.820312 -8.453125 7.519531 -8.191406 7.96875 -7.671875 C 8.425781 -7.148438 8.65625 -6.390625 8.65625 -5.390625 L 8.65625 0 L 6.5625 0 L 6.5625 -5.140625 C 6.5625 -5.691406 6.453125 -6.085938 6.234375 -6.328125 C 6.015625 -6.566406 5.660156 -6.6875 5.171875 -6.6875 C 4.578125 -6.6875 4.113281 -6.492188 3.78125 -6.109375 C 3.445312 -5.722656 3.28125 -5.117188 3.28125 -4.296875 L 3.28125 0 Z M 1.203125 0 "/></g></g></g><g fill="#000000" fill-opacity="1"><g transform="translate(70.119273, 20.086695)"><g><path d="M 4.09375 0.15625 C 3.4375 0.15625 2.859375 0 2.359375 -0.3125 C 1.859375 -0.632812 1.460938 -1.117188 1.171875 -1.765625 C 0.890625 -2.410156 0.75 -3.203125 0.75 -4.140625 C 0.75 -5.085938 0.894531 -5.882812 1.1875 -6.53125 C 1.476562 -7.175781 1.882812 -7.65625 2.40625 -7.96875 C 2.925781 -8.289062 3.523438 -8.453125 4.203125 -8.453125 C 4.722656 -8.453125 5.171875 -8.363281 5.546875 -8.1875 C 5.921875 -8.007812 6.238281 -7.734375 6.5 -7.359375 L 6.671875 -7.390625 L 6.671875 -11.625 L 8.75 -11.625 L 8.75 0 L 6.671875 0 L 6.671875 -1.078125 L 6.5 -1.109375 C 6.269531 -0.710938 5.953125 -0.398438 5.546875 -0.171875 C 5.148438 0.046875 4.664062 0.15625 4.09375 0.15625 Z M 4.78125 -1.609375 C 5.363281 -1.609375 5.828125 -1.816406 6.171875 -2.234375 C 6.515625 -2.648438 6.6875 -3.285156 6.6875 -4.140625 C 6.6875 -4.992188 6.515625 -5.628906 6.171875 -6.046875 C 5.828125 -6.472656 5.363281 -6.6875 4.78125 -6.6875 C 4.164062 -6.6875 3.695312 -6.484375 3.375 -6.078125 C 3.050781 -5.671875 2.890625 -5.023438 2.890625 -4.140625 C 2.890625 -3.273438 3.050781 -2.632812 3.375 -2.21875 C 3.695312 -1.8125 4.164062 -1.609375 4.78125 -1.609375 Z M 4.78125 -1.609375 "/></g></g></g><g fill="#000000" fill-opacity="1"><g transform="translate(80.061463, 20.086695)"><g><path d="M 8.203125 -3.671875 L 2.859375 -3.671875 C 2.921875 -2.953125 3.128906 -2.425781 3.484375 -2.09375 C 3.835938 -1.769531 4.316406 -1.609375 4.921875 -1.609375 C 5.398438 -1.609375 5.785156 -1.695312 6.078125 -1.875 C 6.367188 -2.050781 6.609375 -2.320312 6.796875 -2.6875 L 6.953125 -2.6875 L 8.328125 -1.796875 C 8.054688 -1.210938 7.644531 -0.738281 7.09375 -0.375 C 6.550781 -0.0195312 5.828125 0.15625 4.921875 0.15625 C 4.066406 0.15625 3.328125 -0.00390625 2.703125 -0.328125 C 2.078125 -0.648438 1.59375 -1.132812 1.25 -1.78125 C 0.914062 -2.425781 0.75 -3.210938 0.75 -4.140625 C 0.75 -5.085938 0.925781 -5.882812 1.28125 -6.53125 C 1.632812 -7.175781 2.113281 -7.65625 2.71875 -7.96875 C 3.332031 -8.289062 4.015625 -8.453125 4.765625 -8.453125 C 5.941406 -8.453125 6.84375 -8.140625 7.46875 -7.515625 C 8.09375 -6.898438 8.40625 -5.988281 8.40625 -4.78125 C 8.40625 -4.34375 8.390625 -4.003906 8.359375 -3.765625 Z M 6.40625 -5.03125 C 6.382812 -5.65625 6.238281 -6.113281 5.96875 -6.40625 C 5.695312 -6.695312 5.296875 -6.84375 4.765625 -6.84375 C 3.710938 -6.84375 3.09375 -6.238281 2.90625 -5.03125 Z M 6.40625 -5.03125 "/></g></g></g><g fill="#000000" fill-opacity="1"><g transform="translate(89.07863, 20.086695)"><g><path d="M 1.203125 0 L 1.203125 -8.296875 L 3.21875 -8.296875 L 3.21875 -7.0625 L 3.375 -7.03125 C 3.570312 -7.488281 3.832031 -7.828125 4.15625 -8.046875 C 4.488281 -8.265625 4.890625 -8.375 5.359375 -8.375 C 5.828125 -8.375 6.1875 -8.289062 6.4375 -8.125 L 6.078125 -6.328125 L 5.921875 -6.296875 C 5.785156 -6.359375 5.65625 -6.398438 5.53125 -6.421875 C 5.40625 -6.453125 5.25 -6.46875 5.0625 -6.46875 C 4.488281 -6.46875 4.046875 -6.257812 3.734375 -5.84375 C 3.429688 -5.4375 3.28125 -4.78125 3.28125 -3.875 L 3.28125 0 Z M 1.203125 0 "/></g></g></g><g fill="#f15757" fill-opacity="1"><g transform="translate(95.592361, 20.086695)"><g><path d="M 10.546875 0 L 8.265625 0 L 7.4375 -2.53125 L 3.234375 -2.53125 L 2.40625 0 L 0.171875 0 L 3.96875 -11 L 6.75 -11 Z M 5.234375 -8.703125 L 3.8125 -4.359375 L 6.84375 -4.359375 L 5.421875 -8.703125 Z M 5.234375 -8.703125 "/></g></g></g><g fill="#f15757" fill-opacity="1"><g transform="translate(106.309176, 20.086695)"><g><path d="M 3.609375 0 L 1.421875 0 L 1.421875 -11 L 3.609375 -11 Z M 3.609375 0 "/></g></g></g></svg>